<mxfile host="app.diagrams.net" modified="2021-04-09T04:06:49.307Z" agent="5.0 (Macintosh)" etag="GjSJJK_F4duwYvw4u96U" version="14.5.8" type="github">
  <diagram id="tvBMbFpT31evSggDGeiL" name="Page-1">
    <mxGraphModel dx="1031" dy="700" grid="1" gridSize="10" guides="1" tooltips="1" connect="1" arrows="1" fold="1" page="1" pageScale="1" pageWidth="827" pageHeight="1169" math="0" shadow="0">
      <root>
        <mxCell id="0" />
        <mxCell id="1" parent="0" />
        <mxCell id="vjG5bbd1AfI4QEYU4cQt-1" value="" style="rounded=0;whiteSpace=wrap;html=1;fillColor=#1ba1e2;strokeColor=#006EAF;fontColor=#ffffff;" parent="1" vertex="1">
          <mxGeometry x="80" y="190" width="680" height="160" as="geometry" />
        </mxCell>
        <mxCell id="vjG5bbd1AfI4QEYU4cQt-3" value="展示层" style="text;html=1;strokeColor=none;fillColor=none;align=center;verticalAlign=middle;whiteSpace=wrap;rounded=0;fontSize=20;fontColor=#FFFFFF;fontStyle=1" parent="1" vertex="1">
          <mxGeometry x="90" y="200" width="70" height="20" as="geometry" />
        </mxCell>
        <mxCell id="vjG5bbd1AfI4QEYU4cQt-4" value="" style="rounded=0;whiteSpace=wrap;html=1;fillColor=#1ba1e2;strokeColor=#006EAF;fontColor=#ffffff;" parent="1" vertex="1">
          <mxGeometry x="80" y="470" width="680" height="170" as="geometry" />
        </mxCell>
        <mxCell id="vjG5bbd1AfI4QEYU4cQt-5" value="" style="endArrow=classic;html=1;fontSize=18;fontColor=#FFFFFF;entryX=0.5;entryY=1;entryDx=0;entryDy=0;exitX=0.5;exitY=0;exitDx=0;exitDy=0;" parent="1" source="vjG5bbd1AfI4QEYU4cQt-4" target="vjG5bbd1AfI4QEYU4cQt-1" edge="1">
          <mxGeometry width="50" height="50" relative="1" as="geometry">
            <mxPoint x="420" y="460" as="sourcePoint" />
            <mxPoint x="380" y="400" as="targetPoint" />
          </mxGeometry>
        </mxCell>
        <mxCell id="vjG5bbd1AfI4QEYU4cQt-17" value="&lt;div&gt;业务层&lt;/div&gt;" style="text;html=1;strokeColor=none;fillColor=none;align=center;verticalAlign=middle;whiteSpace=wrap;rounded=0;fontSize=20;fontColor=#FFFFFF;fontStyle=1" parent="1" vertex="1">
          <mxGeometry x="90" y="490" width="70" height="20" as="geometry" />
        </mxCell>
        <mxCell id="vjG5bbd1AfI4QEYU4cQt-21" value="" style="rounded=0;whiteSpace=wrap;html=1;fillColor=#1ba1e2;strokeColor=#006EAF;fontColor=#ffffff;" parent="1" vertex="1">
          <mxGeometry x="80" y="767.98" width="680" height="120" as="geometry" />
        </mxCell>
        <mxCell id="vjG5bbd1AfI4QEYU4cQt-23" value="数据层" style="text;html=1;strokeColor=none;fillColor=none;align=center;verticalAlign=middle;whiteSpace=wrap;rounded=0;fontSize=20;fontColor=#FFFFFF;fontStyle=1" parent="1" vertex="1">
          <mxGeometry x="90" y="787.98" width="70" height="20" as="geometry" />
        </mxCell>
        <mxCell id="vjG5bbd1AfI4QEYU4cQt-30" value="" style="endArrow=classic;html=1;fontSize=12;fontColor=#FFFFFF;entryX=0.213;entryY=-0.004;entryDx=0;entryDy=0;exitX=0.213;exitY=1.01;exitDx=0;exitDy=0;exitPerimeter=0;entryPerimeter=0;" parent="1" edge="1">
          <mxGeometry width="50" height="50" relative="1" as="geometry">
            <mxPoint x="244.83999999999992" y="641.02" as="sourcePoint" />
            <mxPoint x="244.83999999999992" y="767.98" as="targetPoint" />
          </mxGeometry>
        </mxCell>
        <mxCell id="vjG5bbd1AfI4QEYU4cQt-38" value="" style="endArrow=classic;html=1;fontSize=18;fontColor=#FFFFFF;entryX=0.676;entryY=1.015;entryDx=0;entryDy=0;entryPerimeter=0;exitX=0.676;exitY=-0.004;exitDx=0;exitDy=0;exitPerimeter=0;" parent="1" edge="1">
          <mxGeometry width="50" height="50" relative="1" as="geometry">
            <mxPoint x="595.6800000000001" y="765.96" as="sourcePoint" />
            <mxPoint x="595.6800000000001" y="640" as="targetPoint" />
          </mxGeometry>
        </mxCell>
        <mxCell id="vjG5bbd1AfI4QEYU4cQt-44" value="&lt;font style=&quot;font-size: 13px&quot;&gt;传递数据&lt;/font&gt;" style="rounded=1;whiteSpace=wrap;html=1;fontSize=18;fontColor=#ffffff;arcSize=50;fillColor=#1ba1e2;strokeColor=#006EAF;" parent="1" vertex="1">
          <mxGeometry x="385" y="390" width="70" height="30" as="geometry" />
        </mxCell>
        <mxCell id="vjG5bbd1AfI4QEYU4cQt-48" value="请求数据" style="rounded=1;whiteSpace=wrap;html=1;fontSize=13;fontColor=#ffffff;arcSize=50;fillColor=#1ba1e2;strokeColor=#006EAF;" parent="1" vertex="1">
          <mxGeometry x="210" y="689.02" width="70" height="30" as="geometry" />
        </mxCell>
        <mxCell id="vjG5bbd1AfI4QEYU4cQt-49" value="&lt;div style=&quot;font-size: 13px&quot;&gt;返回数据&lt;/div&gt;" style="rounded=1;whiteSpace=wrap;html=1;fontSize=18;fontColor=#ffffff;arcSize=50;fillColor=#1ba1e2;strokeColor=#006EAF;" parent="1" vertex="1">
          <mxGeometry x="560" y="687" width="70" height="30" as="geometry" />
        </mxCell>
        <mxCell id="PuL-V4dSkdKhYyvplN48-1" value="统计" style="rounded=0;whiteSpace=wrap;html=1;fillColor=#647687;strokeColor=#314354;fontColor=#ffffff;" parent="1" vertex="1">
          <mxGeometry x="160" y="510" width="70" height="30" as="geometry" />
        </mxCell>
        <mxCell id="PuL-V4dSkdKhYyvplN48-2" value="埋点" style="rounded=0;whiteSpace=wrap;html=1;fillColor=#647687;strokeColor=#314354;fontColor=#ffffff;" parent="1" vertex="1">
          <mxGeometry x="240" y="510" width="70" height="30" as="geometry" />
        </mxCell>
        <mxCell id="PuL-V4dSkdKhYyvplN48-7" value="权限管理" style="rounded=0;whiteSpace=wrap;html=1;fillColor=#647687;strokeColor=#314354;fontColor=#ffffff;" parent="1" vertex="1">
          <mxGeometry x="320" y="510" width="70" height="30" as="geometry" />
        </mxCell>
        <mxCell id="PuL-V4dSkdKhYyvplN48-8" value="数据解析" style="rounded=0;whiteSpace=wrap;html=1;fillColor=#647687;strokeColor=#314354;fontColor=#ffffff;" parent="1" vertex="1">
          <mxGeometry x="160" y="550" width="70" height="30" as="geometry" />
        </mxCell>
        <mxCell id="PuL-V4dSkdKhYyvplN48-9" value="传递数据" style="rounded=0;whiteSpace=wrap;html=1;fillColor=#647687;strokeColor=#314354;fontColor=#ffffff;" parent="1" vertex="1">
          <mxGeometry x="240" y="550" width="70" height="30" as="geometry" />
        </mxCell>
        <mxCell id="PuL-V4dSkdKhYyvplN48-10" value="数据安全" style="rounded=0;whiteSpace=wrap;html=1;fillColor=#647687;strokeColor=#314354;fontColor=#ffffff;" parent="1" vertex="1">
          <mxGeometry x="320" y="550" width="70" height="30" as="geometry" />
        </mxCell>
        <mxCell id="PuL-V4dSkdKhYyvplN48-11" value="智能推荐" style="rounded=0;whiteSpace=wrap;html=1;fillColor=#647687;strokeColor=#314354;fontColor=#ffffff;" parent="1" vertex="1">
          <mxGeometry x="160" y="590" width="70" height="30" as="geometry" />
        </mxCell>
        <mxCell id="PuL-V4dSkdKhYyvplN48-12" value="分享" style="rounded=0;whiteSpace=wrap;html=1;fillColor=#647687;strokeColor=#314354;fontColor=#ffffff;" parent="1" vertex="1">
          <mxGeometry x="400" y="510" width="70" height="30" as="geometry" />
        </mxCell>
        <mxCell id="PuL-V4dSkdKhYyvplN48-13" value="授权登录" style="rounded=0;whiteSpace=wrap;html=1;fillColor=#647687;strokeColor=#314354;fontColor=#ffffff;" parent="1" vertex="1">
          <mxGeometry x="480" y="510" width="70" height="30" as="geometry" />
        </mxCell>
        <mxCell id="PuL-V4dSkdKhYyvplN48-14" value="订单管理" style="rounded=0;whiteSpace=wrap;html=1;fillColor=#647687;strokeColor=#314354;fontColor=#ffffff;" parent="1" vertex="1">
          <mxGeometry x="400" y="550" width="70" height="30" as="geometry" />
        </mxCell>
        <mxCell id="PuL-V4dSkdKhYyvplN48-15" value="积分管理" style="rounded=0;whiteSpace=wrap;html=1;fillColor=#647687;strokeColor=#314354;fontColor=#ffffff;" parent="1" vertex="1">
          <mxGeometry x="480" y="550" width="70" height="30" as="geometry" />
        </mxCell>
        <mxCell id="PuL-V4dSkdKhYyvplN48-16" value="消息推送" style="rounded=0;whiteSpace=wrap;html=1;fillColor=#647687;strokeColor=#314354;fontColor=#ffffff;" parent="1" vertex="1">
          <mxGeometry x="560" y="510" width="70" height="30" as="geometry" />
        </mxCell>
        <mxCell id="PuL-V4dSkdKhYyvplN48-17" value="请求数据" style="rounded=0;whiteSpace=wrap;html=1;fillColor=#647687;strokeColor=#314354;fontColor=#ffffff;" parent="1" vertex="1">
          <mxGeometry x="640" y="510" width="70" height="30" as="geometry" />
        </mxCell>
        <mxCell id="PuL-V4dSkdKhYyvplN48-18" value="活动管理" style="rounded=0;whiteSpace=wrap;html=1;fillColor=#647687;strokeColor=#314354;fontColor=#ffffff;" parent="1" vertex="1">
          <mxGeometry x="560" y="550" width="70" height="30" as="geometry" />
        </mxCell>
        <mxCell id="PuL-V4dSkdKhYyvplN48-19" value="粉丝管理" style="rounded=0;whiteSpace=wrap;html=1;fillColor=#647687;strokeColor=#314354;fontColor=#ffffff;" parent="1" vertex="1">
          <mxGeometry x="640" y="550" width="70" height="30" as="geometry" />
        </mxCell>
        <mxCell id="PuL-V4dSkdKhYyvplN48-21" value="..." style="rounded=0;whiteSpace=wrap;html=1;fillColor=#647687;strokeColor=#314354;fontColor=#ffffff;" parent="1" vertex="1">
          <mxGeometry x="240" y="590" width="70" height="30" as="geometry" />
        </mxCell>
        <mxCell id="PuL-V4dSkdKhYyvplN48-22" value="" style="rounded=0;whiteSpace=wrap;html=1;fillColor=#6d8764;strokeColor=#3A5431;fontColor=#ffffff;" parent="1" vertex="1">
          <mxGeometry x="160" y="220" width="410" height="110" as="geometry" />
        </mxCell>
        <mxCell id="PuL-V4dSkdKhYyvplN48-23" value="" style="rounded=0;whiteSpace=wrap;html=1;fillColor=#6d8764;strokeColor=#3A5431;fontColor=#ffffff;" parent="1" vertex="1">
          <mxGeometry x="580" y="220" width="170" height="110" as="geometry" />
        </mxCell>
        <mxCell id="PuL-V4dSkdKhYyvplN48-25" value="原生组件" style="text;html=1;strokeColor=none;fillColor=none;align=center;verticalAlign=middle;whiteSpace=wrap;rounded=0;fontSize=13;fontColor=#FFFFFF;" parent="1" vertex="1">
          <mxGeometry x="160" y="220" width="70" height="30" as="geometry" />
        </mxCell>
        <mxCell id="PuL-V4dSkdKhYyvplN48-26" value="HTML" style="text;html=1;strokeColor=none;fillColor=none;align=center;verticalAlign=middle;whiteSpace=wrap;rounded=0;fontSize=13;fontColor=#FFFFFF;" parent="1" vertex="1">
          <mxGeometry x="574" y="220" width="68" height="30" as="geometry" />
        </mxCell>
        <mxCell id="PuL-V4dSkdKhYyvplN48-27" value="启动页" style="rounded=0;whiteSpace=wrap;html=1;fillColor=#647687;strokeColor=#314354;fontColor=#ffffff;" parent="1" vertex="1">
          <mxGeometry x="170" y="250" width="70" height="30" as="geometry" />
        </mxCell>
        <mxCell id="PuL-V4dSkdKhYyvplN48-28" value="登录注册" style="rounded=0;whiteSpace=wrap;html=1;fillColor=#647687;strokeColor=#314354;fontColor=#ffffff;" parent="1" vertex="1">
          <mxGeometry x="250" y="250" width="70" height="30" as="geometry" />
        </mxCell>
        <mxCell id="PuL-V4dSkdKhYyvplN48-29" value="商城" style="rounded=0;whiteSpace=wrap;html=1;fillColor=#647687;strokeColor=#314354;fontColor=#ffffff;" parent="1" vertex="1">
          <mxGeometry x="330" y="250" width="70" height="30" as="geometry" />
        </mxCell>
        <mxCell id="PuL-V4dSkdKhYyvplN48-30" value="消息" style="rounded=0;whiteSpace=wrap;html=1;fillColor=#647687;strokeColor=#314354;fontColor=#ffffff;" parent="1" vertex="1">
          <mxGeometry x="410" y="250" width="70" height="30" as="geometry" />
        </mxCell>
        <mxCell id="PuL-V4dSkdKhYyvplN48-47" value="商学院" style="rounded=0;whiteSpace=wrap;html=1;fillColor=#647687;strokeColor=#314354;fontColor=#ffffff;" parent="1" vertex="1">
          <mxGeometry x="490" y="250" width="70" height="30" as="geometry" />
        </mxCell>
        <mxCell id="PuL-V4dSkdKhYyvplN48-48" value="..." style="rounded=0;whiteSpace=wrap;html=1;fillColor=#647687;strokeColor=#314354;fontColor=#ffffff;" parent="1" vertex="1">
          <mxGeometry x="170" y="290" width="70" height="30" as="geometry" />
        </mxCell>
        <mxCell id="PuL-V4dSkdKhYyvplN48-54" value="活动详情" style="rounded=0;whiteSpace=wrap;html=1;fillColor=#647687;strokeColor=#314354;fontColor=#ffffff;" parent="1" vertex="1">
          <mxGeometry x="590" y="250" width="70" height="30" as="geometry" />
        </mxCell>
        <mxCell id="PuL-V4dSkdKhYyvplN48-55" value="常见问题" style="rounded=0;whiteSpace=wrap;html=1;fillColor=#647687;strokeColor=#314354;fontColor=#ffffff;" parent="1" vertex="1">
          <mxGeometry x="670" y="250" width="70" height="30" as="geometry" />
        </mxCell>
        <mxCell id="PuL-V4dSkdKhYyvplN48-56" value="各项功能说明页" style="rounded=0;whiteSpace=wrap;html=1;fillColor=#647687;strokeColor=#314354;fontColor=#ffffff;" parent="1" vertex="1">
          <mxGeometry x="590" y="290" width="70" height="30" as="geometry" />
        </mxCell>
        <mxCell id="PuL-V4dSkdKhYyvplN48-57" value="..." style="rounded=0;whiteSpace=wrap;html=1;fillColor=#647687;strokeColor=#314354;fontColor=#ffffff;" parent="1" vertex="1">
          <mxGeometry x="670" y="290" width="70" height="30" as="geometry" />
        </mxCell>
        <mxCell id="PuL-V4dSkdKhYyvplN48-103" value="网络请求" style="rounded=0;whiteSpace=wrap;html=1;fillColor=#647687;strokeColor=#314354;fontColor=#ffffff;" parent="1" vertex="1">
          <mxGeometry x="219" y="812.98" width="70" height="30" as="geometry" />
        </mxCell>
        <mxCell id="PuL-V4dSkdKhYyvplN48-104" value="数据加密缓存" style="rounded=0;whiteSpace=wrap;html=1;fillColor=#647687;strokeColor=#314354;fontColor=#ffffff;" parent="1" vertex="1">
          <mxGeometry x="319" y="812.98" width="90" height="30" as="geometry" />
        </mxCell>
        <mxCell id="PuL-V4dSkdKhYyvplN48-105" value="日志" style="rounded=0;whiteSpace=wrap;html=1;fillColor=#647687;strokeColor=#314354;fontColor=#ffffff;" parent="1" vertex="1">
          <mxGeometry x="438" y="812.98" width="70" height="30" as="geometry" />
        </mxCell>
        <mxCell id="PuL-V4dSkdKhYyvplN48-106" value="文件" style="rounded=0;whiteSpace=wrap;html=1;fillColor=#647687;strokeColor=#314354;fontColor=#ffffff;" parent="1" vertex="1">
          <mxGeometry x="539" y="812.98" width="70" height="30" as="geometry" />
        </mxCell>
      </root>
    </mxGraphModel>
  </diagram>
</mxfile>
